<?xml version="1.0" encoding="UTF-8"?>
<svg enable-background="new 0 0 1000 1000" fill="#fff" version="1.1" viewBox="0 0 1e3 1e3" xml:space="preserve" xmlns="http://www.w3.org/2000/svg">

    <path d="m958.4 123.1h-345.3v112.5h114.2v76.6h-114.2v74.8h113.1v75.4h-113.1v75.4h113.1v75.4h-113.1v75.4h113.1v75.4h-113.1v113.1h345.3c17.4 0 31.6-14.7 31.6-32.8v-688.4c0-18.1-14.2-32.8-31.6-32.8zm-43.8 640.7h-150.8v-75.4h150.8v75.4zm0-150.7h-150.8v-75.4h150.8v75.4zm0-150.8h-150.8v-75.4h150.8v75.4zm0-150.8h-150.8v-75.4h150.8v75.4z" />
    <path d="m10 118.9v762.3l565.4 108.8v-980l-565.4 108.9zm357.6 572.6-65.8-124.3c-2.5-4.6-5.1-13.2-7.7-25.6h-1c-1.2 5.8-4.2 14.7-8.8 26.6l-66 123.3h-102.5l121.7-190.9-111.3-190.9h104.6l54.6 114.5c4.3 9 8.1 19.8 11.5 32.2h1.1c2.1-7.5 6.1-18.5 12-33.3l60.7-113.4h95.8l-114.6 189.2 117.7 192.5-102 0.1z" />

</svg>
