<svg fill="#fff" enable-background="new 0 0 25 25.001" version="1.1" viewBox="0 0 25 25.001" xml:space="preserve" xmlns="http://www.w3.org/2000/svg">

	<path d="m24.38 10.175-2.231-0.268c-0.228-0.851-0.562-1.655-0.992-2.401l1.387-1.763c0.212-0.271 0.188-0.69-0.057-0.934l-2.299-2.3c-0.242-0.243-0.662-0.269-0.934-0.057l-1.766 1.389c-0.743-0.43-1.547-0.764-2.396-0.99l-0.267-2.231c-0.041-0.341-0.356-0.62-0.7-0.62h-3.252c-0.344 0-0.659 0.279-0.699 0.62l-0.268 2.231c-0.85 0.227-1.655 0.562-2.398 0.991l-1.765-1.387c-0.27-0.212-0.69-0.187-0.933 0.056l-2.3 2.301c-0.242 0.242-0.267 0.662-0.054 0.934l1.386 1.764c-0.43 0.744-0.764 1.549-0.991 2.4l-2.23 0.267c-0.341 0.04-0.621 0.355-0.621 0.7v3.252c0 0.344 0.279 0.657 0.621 0.699l2.231 0.268c0.228 0.848 0.561 1.652 0.991 2.396l-1.386 1.766c-0.211 0.271-0.187 0.69 0.057 0.934l2.296 2.301c0.243 0.242 0.663 0.269 0.933 0.057l1.766-1.39c0.744 0.43 1.548 0.765 2.398 0.991l0.268 2.23c0.041 0.342 0.355 0.62 0.699 0.62h3.252c0.345 0 0.659-0.278 0.699-0.62l0.268-2.23c0.851-0.228 1.655-0.562 2.398-0.991l1.766 1.387c0.271 0.212 0.69 0.187 0.933-0.056l2.299-2.301c0.244-0.242 0.269-0.662 0.056-0.935l-1.388-1.764c0.431-0.744 0.764-1.548 0.992-2.397l2.23-0.268c0.342-0.041 0.621-0.353 0.621-0.699v-3.252c1e-3 -0.346-0.277-0.659-0.62-0.7zm-11.879 8.575c-3.452 0-6.25-2.798-6.25-6.25s2.798-6.25 6.25-6.25 6.25 2.798 6.25 6.25-2.797 6.25-6.25 6.25z" />


</svg>
